<svg width="1000" height="1000" viewBox="0 0 1000 1000" fill="none" xmlns="http://www.w3.org/2000/svg">
<path d="M500 10C229.3 10 10 229.3 10 500C10 770.7 229.4 990 500 990C770.7 990 990 770.6 990 500C990 229.4 770.7 10 500 10ZM500 920.1C268 920.1 79.9 732 79.9 500C79.9 268 268 79.9 500 79.9C732 79.9 920.1 268 920.1 500C920.1 732 732 920.1 500 920.1ZM699.8 300.2C686.2 286.6 664 286.5 650.3 300.2L500 450.5L349.7 300.2C336.1 286.6 313.9 286.6 300.2 300.2C286.5 313.8 286.6 336 300.2 349.7L450.5 500L300.2 650.3C286.6 663.9 286.6 686.1 300.2 699.8C313.8 713.4 336 713.5 349.7 699.8L500 549.5L650.3 699.8C663.9 713.4 686.1 713.4 699.8 699.8C713.5 686.2 713.4 664 699.8 650.3L549.5 500L699.8 349.7C713.4 336.1 713.4 314 699.8 300.2Z" fill="#F2F2F2"/>
</svg>
